<?xml version="1.0" encoding="UTF-8"?>
<svg id="Layer_2" xmlns="http://www.w3.org/2000/svg" viewBox="0 0 671.26 55.69">
  <defs>
    <style>
      .cls-1 {
        fill: #181818;
      }
    </style>
  </defs>
  <g id="Layer_1-2">
    <g>
      <path class="cls-1" d="M12.21,27.85c0,9.46,4.58,17.78,14.88,17.78,7.63,0,11.75-4.04,12.59-10.53h-11.82v-10.3h23.65v29.75h-9.54l-.76-4.2c-3.05,3.05-7.25,5.34-14.5,5.34-16.41,0-26.71-11.74-26.71-27.84S10.3,0,27.08,0c12.74,0,20.6,6.71,23.65,15.64h-13.58c-1.45-3.28-4.5-5.57-10.07-5.57-10.3,0-14.88,8.32-14.88,17.78h0Z"/>
      <path class="cls-1" d="M71.79,43.87l-4.19,10.68h-12.59L76.75,1.14h12.21l21.74,53.41h-12.59l-4.19-10.68h-22.13ZM78.2,27.46l-2.37,6.1h14.04l-2.37-6.1c-1.83-4.65-3.58-10.3-4.42-13.35h-.38c-.84,3.05-2.67,8.7-4.5,13.35Z"/>
      <path class="cls-1" d="M128.48,1.14v43.11h26.7v10.3h-38.91V1.14h12.21Z"/>
      <path class="cls-1" d="M190.59,18.31h-.3c.61,4.88.61,8.47.61,16.78v19.46h-12.21V1.14h13.35l13.81,20.37c5.19,7.56,7.86,12.28,9.77,15.87h.31c-.61-4.88-.61-8.47-.61-16.78V1.14h12.21v53.41h-13.35l-13.81-20.37c-5.19-7.56-7.86-12.28-9.77-15.87h0Z"/>
      <path class="cls-1" d="M279.7,1.14v10.3h-28.23v10.68h26.7v10.3h-26.7v11.82h28.23v10.3h-40.44V1.14h40.44Z"/>
      <path class="cls-1" d="M301.75,1.14v43.11h26.7v10.3h-38.91V1.14h12.21Z"/>
      <path class="cls-1" d="M347.23,1.14v43.11h26.7v10.3h-38.91V1.14h12.21Z"/>
      <path class="cls-1" d="M419.18,54.55h-21.74V1.14h21.74c15.57,0,25.94,9.99,25.94,26.7s-10.38,26.7-25.94,26.7h0ZM418.42,11.44h-8.78v32.8h8.78c9.23,0,14.49-5.34,14.49-16.4s-5.27-16.4-14.49-16.4Z"/>
      <path class="cls-1" d="M463.05,43.87l-4.19,10.68h-12.59L468.01,1.14h12.2l21.75,53.41h-12.59l-4.19-10.68h-22.13ZM469.46,27.46l-2.37,6.1h14.04l-2.37-6.1c-1.83-4.65-3.58-10.3-4.42-13.35h-.38c-.84,3.05-2.67,8.7-4.5,13.35Z"/>
      <path class="cls-1" d="M543.39,54.55v-22.12h-23.65v22.12h-12.21V1.14h12.21v20.98h23.65V1.14h12.21v53.41h-12.21Z"/>
      <path class="cls-1" d="M577.95,43.87l-4.19,10.68h-12.59l21.75-53.41h12.2l21.75,53.41h-12.59l-4.19-10.68h-22.14ZM584.36,27.46l-2.37,6.1h14.04l-2.37-6.1c-1.83-4.65-3.58-10.3-4.42-13.35h-.38c-.84,3.05-2.67,8.7-4.5,13.35Z"/>
      <path class="cls-1" d="M634.33,18.31h-.3c.61,4.88.61,8.47.61,16.78v19.46h-12.21V1.14h13.35l13.81,20.37c5.19,7.56,7.86,12.28,9.77,15.87h.31c-.61-4.88-.61-8.47-.61-16.78V1.14h12.2v53.41h-13.35l-13.81-20.37c-5.19-7.56-7.86-12.28-9.77-15.87Z"/>
    </g>
  </g>
</svg>
