<?xml version="1.0" encoding="UTF-8"?>
<svg id="Layer_2" xmlns="http://www.w3.org/2000/svg" version="1.1" viewBox="0 0 671.3 55.7">
  <!-- Generator: Adobe Illustrator 29.0.0, SVG Export Plug-In . SVG Version: 2.1.0 Build 186)  -->
  <defs>
    <style>
      .st0 {
        fill: #2d2f30;
      }
    </style>
  </defs>
  <g id="Layer_1-2">
    <g>
      <path class="st0" d="M12.2,27.9c0,9.5,4.6,17.8,14.9,17.8s11.8-4,12.6-10.5h-11.8v-10.3h23.7v29.8h-9.5l-.8-4.2c-3,3-7.2,5.3-14.5,5.3-16.4,0-26.7-11.7-26.7-27.8S10.3,0,27.1,0s20.6,6.7,23.6,15.6h-13.6c-1.5-3.3-4.5-5.6-10.1-5.6-10.3,0-14.9,8.3-14.9,17.8h0Z"/>
      <path class="st0" d="M71.8,43.9l-4.2,10.7h-12.6L76.8,1.1h12.2l21.7,53.4h-12.6l-4.2-10.7h-22.1ZM78.2,27.5l-2.4,6.1h14l-2.4-6.1c-1.8-4.6-3.6-10.3-4.4-13.4h-.4c-.8,3-2.7,8.7-4.5,13.4Z"/>
      <path class="st0" d="M128.5,1.1v43.1h26.7v10.3h-38.9V1.1h12.2Z"/>
      <path class="st0" d="M190.6,18.3h-.3c.6,4.9.6,8.5.6,16.8v19.5h-12.2V1.1h13.4l13.8,20.4c5.2,7.6,7.9,12.3,9.8,15.9h.3c-.6-4.9-.6-8.5-.6-16.8V1.1h12.2v53.4h-13.4l-13.8-20.4c-5.2-7.6-7.9-12.3-9.8-15.9h0Z"/>
      <path class="st0" d="M279.7,1.1v10.3h-28.2v10.7h26.7v10.3h-26.7v11.8h28.2v10.3h-40.4V1.1h40.4Z"/>
      <path class="st0" d="M301.8,1.1v43.1h26.7v10.3h-38.9V1.1h12.2Z"/>
      <path class="st0" d="M347.2,1.1v43.1h26.7v10.3h-38.9V1.1h12.2Z"/>
      <path class="st0" d="M419.2,54.5h-21.7V1.1h21.7c15.6,0,25.9,10,25.9,26.7s-10.4,26.7-25.9,26.7h0ZM418.4,11.4h-8.8v32.8h8.8c9.2,0,14.5-5.3,14.5-16.4s-5.3-16.4-14.5-16.4Z"/>
      <path class="st0" d="M463,43.9l-4.2,10.7h-12.6L468,1.1h12.2l21.8,53.4h-12.6l-4.2-10.7h-22.1ZM469.5,27.5l-2.4,6.1h14l-2.4-6.1c-1.8-4.6-3.6-10.3-4.4-13.4h-.4c-.8,3-2.7,8.7-4.5,13.4Z"/>
      <path class="st0" d="M543.4,54.5v-22.1h-23.7v22.1h-12.2V1.1h12.2v21h23.7V1.1h12.2v53.4h-12.2Z"/>
      <path class="st0" d="M578,43.9l-4.2,10.7h-12.6l21.8-53.4h12.2l21.8,53.4h-12.6l-4.2-10.7h-22.1ZM584.4,27.5l-2.4,6.1h14l-2.4-6.1c-1.8-4.6-3.6-10.3-4.4-13.4h-.4c-.8,3-2.7,8.7-4.5,13.4Z"/>
      <path class="st0" d="M634.3,18.3h-.3c.6,4.9.6,8.5.6,16.8v19.5h-12.2V1.1h13.3l13.8,20.4c5.2,7.6,7.9,12.3,9.8,15.9h.3c-.6-4.9-.6-8.5-.6-16.8V1.1h12.2v53.4h-13.3l-13.8-20.4c-5.2-7.6-7.9-12.3-9.8-15.9Z"/>
    </g>
  </g>
</svg>